<?xml version="1.0" encoding="utf-8"?>
<!-- Generator: Adobe Illustrator 20.1.0, SVG Export Plug-In . SVG Version: 6.00 Build 0)  -->
<svg version="1.2" baseProfile="tiny" id="Layer_1" xmlns="http://www.w3.org/2000/svg" xmlns:xlink="http://www.w3.org/1999/xlink"
	 x="0px" y="0px" viewBox="0 0 128 128" xml:space="preserve">
<rect x="-5.1" y="-4.5" fill="#3B5998" width="138.3" height="138.3"/>
<rect x="0.7" y="1" fill="none" width="128" height="128"/>
<g>
	<path fill="#FFFFFF" d="M49.5,19.5H23.1c-0.9,0-1.6,0.7-1.6,1.6v26.4c0,0.9,0.7,1.6,1.6,1.6h14.2V37.7h-3.9v-4.5h3.9v-3.3
		c0-3.8,2.3-5.9,5.8-5.9c1.6,0,3,0.1,3.5,0.2v4l-2.4,0c-1.9,0-2.2,0.9-2.2,2.2v2.9h4.4l-0.6,4.5H42v11.5h7.6c0.9,0,1.6-0.7,1.6-1.6
		V21.1C51.2,20.2,50.5,19.5,49.5,19.5z"/>
	<path fill="#EE4242" d="M105.8,19.5H55.9c-0.9,0-1.6,0.7-1.6,1.6v26.4c0,0.9,0.7,1.6,1.6,1.6h49.8c0.9,0,1.6-0.7,1.6-1.6V21.1
		C107.4,20.2,106.7,19.5,105.8,19.5z M70.6,40.6h-8V28h2.2v10.6h5.8V40.6z M75.3,40.6H73V28h2.2V40.6z M84.4,40.6h-2.6L77.5,28h2.5
		l3.2,9.9h0.1l3.1-9.9h2.4L84.4,40.6z M99.1,30h-5.9v3.3h5.6v1.8h-5.6v3.5h5.9v1.9H91V28h8.1V30z"/>
</g>
<g>
	<path fill="#FFFFFF" d="M55.8,69.7h8v-8.8h1.5v8.8h7.9v1.4h-8v8.8h-1.5v-8.8h-7.9V69.7z"/>
</g>
<g>
	<path fill="#FFFFFF" d="M73.1,95.8h-4.2v0.4c1.3,0,1.5,0.3,1.5,1.9v3c0,1.7-0.2,1.9-1.5,1.9c-1-0.1-1.7-0.6-2.7-1.7l-1.1-1.2
		c1.5-0.2,2.2-1.2,2.2-2.2c0-1.3-1.1-2.2-3.2-2.2H60v0.4c1.3,0,1.5,0.3,1.5,1.9v3c0,1.7-0.2,1.9-1.5,1.9v0.4h4.7V103
		c-1.3,0-1.5-0.3-1.5-1.9v-0.9h0.4l2.6,3.3h6.9c3.3,0,4.8-1.8,4.8-4C77.9,97.5,76.4,95.8,73.1,95.8z M63.2,99.6v-3.1h1
		c1.1,0,1.5,0.7,1.5,1.6s-0.4,1.6-1.5,1.6h-1V99.6z M73.1,102.8h-0.2c-0.9,0-1-0.2-1-1.3v-5.1c0,0,1.1,0,1.2,0
		c2.5,0,2.9,1.8,2.9,3.2C76,101.1,75.5,102.8,73.1,102.8z"/>
	<path fill="#FFFFFF" d="M46.9,100.5l1.6-4.8c0.4-1.4,0.2-1.8-1.3-1.8v-0.4h4.4v0.4c-1.5,0-1.8,0.3-2.5,2l-2.7,8h-0.3l-2.4-7.4
		l-2.5,7.4h-0.2l-2.6-8c-0.5-1.7-1-2-2.4-2v-0.4h5.2v0.4c-1.4,0-1.7,0.3-1.3,1.8l1.6,4.8l2.4-7.1h0.4L46.9,100.5z"/>
	<path fill="#FFFFFF" d="M54.9,103.9c-2.6,0-4.7-1.9-4.7-4.3s2.1-4.2,4.7-4.2c2.6,0,4.7,1.9,4.7,4.2C59.6,102,57.5,103.9,54.9,103.9
		z M54.9,96.2c-2.1,0-2.9,1.9-2.9,3.5s0.7,3.5,2.9,3.5c2.1,0,2.9-1.9,2.9-3.5C57.9,98.1,57.1,96.2,54.9,96.2z"/>
	<path fill="#FFFFFF" d="M83.7,103.2v0.4h-5.4v-0.4c1.6,0,1.8-0.4,1.8-2.8v-3.7c0-2.4-0.3-2.8-1.8-2.8v-0.4h4.9
		c2.5,0,3.7,1.3,3.7,2.9s-1.4,2.9-3.7,2.9h-1.4v1.2C81.9,102.7,82.1,103.2,83.7,103.2z M83.1,94.3h-1.3v4.1h1.4c1.3,0,1.9-1,1.9-2
		C85.1,95.2,84.5,94.3,83.1,94.3z"/>
	<path fill="#FFFFFF" d="M103.2,101.5l-0.1,0.4c-0.2,0.7-0.4,1.1-2.1,1.1h-0.3c-1.2,0-1.4-0.3-1.4-1.9V100c1.8,0,1.9,0.2,1.9,1.4
		h0.4v-3.5h-0.4c0,1.2-0.1,1.4-1.9,1.4v-2.7h1.3c1.7,0,1.9,0.3,2.1,1.1l0.1,0.4h0.4l-0.2-2.2h-7v0.4c1.3,0,1.5,0.3,1.5,1.9v3
		c0,1.5-0.2,1.9-1.2,1.9c-1-0.1-1.7-0.6-2.6-1.7l-1.1-1.2c1.5-0.2,2.2-1.2,2.2-2.2c0-1.3-1.1-2.2-3.2-2.2h-4.2v0.4
		c1.3,0,1.5,0.3,1.5,1.9v3c0,1.7-0.2,1.9-1.5,1.9v0.4h4.7V103c-1.3,0-1.5-0.3-1.5-1.9v-0.9h0.4l2.6,3.3h9.6l0.1-2.2h-0.3V101.5z
		 M90.6,99.6v-3.1h1c1.1,0,1.5,0.7,1.5,1.6s-0.4,1.6-1.5,1.6h-1V99.6z"/>
	<path fill="#FFFFFF" d="M107.9,103.9c-1,0-1.7-0.5-2.1-0.7c-0.1,0.1-0.3,0.4-0.4,0.7h-0.4v-3.2h0.4c0.2,1.6,1.3,2.5,2.7,2.5
		c0.7,0,1.4-0.4,1.4-1.2c0-0.6-0.5-1.1-1.5-1.5l-1.4-0.6c-1-0.4-1.6-1.2-1.6-2.2c0-1.2,1.1-2.1,2.6-2.1c0.7,0,1.4,0.3,1.8,0.6
		c0.1-0.1,0.2-0.3,0.3-0.6h0.4v2.8h-0.5c-0.2-1.1-0.7-2-2-2c-0.6,0-1.3,0.4-1.3,1c0,0.6,0.5,1,1.6,1.5l1.3,0.6
		c1.2,0.5,1.6,1.4,1.6,2.1C110.8,102.8,109.5,103.9,107.9,103.9z"/>
	<path fill="#FFFFFF" d="M115.2,103.9c-1,0-1.7-0.5-2.1-0.7c-0.1,0.1-0.3,0.4-0.4,0.7h-0.4v-3.2h0.4c0.2,1.6,1.3,2.5,2.7,2.5
		c0.7,0,1.4-0.4,1.4-1.2c0-0.6-0.5-1.1-1.5-1.5l-1.4-0.6c-1-0.4-1.6-1.2-1.6-2.2c0-1.2,1.1-2.1,2.6-2.1c0.7,0,1.4,0.3,1.8,0.6
		c0.1-0.1,0.2-0.3,0.3-0.6h0.4v2.8h-0.5c-0.2-1.1-0.7-2-2-2c-0.6,0-1.3,0.4-1.3,1c0,0.6,0.5,1,1.6,1.5l1.3,0.6
		c1.2,0.5,1.6,1.4,1.6,2.1C118.1,102.8,116.8,103.9,115.2,103.9z"/>
	<g>
		<path fill="#FFFFFF" d="M12.6,98.3c0,4.2,2.4,7.7,5.9,9.4l-4.9-13.6C13,95.5,12.6,96.8,12.6,98.3z"/>
		<path fill="#FFFFFF" d="M30.1,97.8c0-1.3-0.4-2.1-0.9-2.9c-0.5-0.9-1.1-1.6-1.1-2.5c0-1,0.7-1.8,1.7-1.8H30
			c-1.8-1.7-4.3-2.8-7.1-2.8c-3.6,0-6.9,1.8-8.7,4.7c0.2,0,0.4,0,0.6,0c1.1,0,2.8-0.1,2.8-0.1c0.5,0,0.6,0.7,0.1,0.9
			c0,0-0.5,0.1-1.2,0.1l3.7,11.2l2.2-6.9L21,93.3c-0.5,0-1.1-0.1-1.1-0.1c-0.5,0-0.5-0.9,0.1-0.9c0,0,1.7,0.1,2.8,0.1
			c1.1,0,2.8-0.1,2.8-0.1c0.5,0,0.6,0.7,0.1,0.9c0,0-0.5,0.1-1.2,0.1l3.7,11.4l1.1-3.4C29.8,99.7,30.1,98.8,30.1,97.8z"/>
		<path fill="#FFFFFF" d="M23.3,99.3l-3.1,9.1c1,0.3,1.9,0.4,2.9,0.4c1.2,0,2.4-0.2,3.4-0.6c0,0,0-0.1-0.1-0.1L23.3,99.3z"/>
		<path fill="#FFFFFF" d="M32.3,93.3c0,0.3,0.1,0.6,0.1,1.1c0,1.1-0.2,2.2-0.7,3.7l-3.2,9.2c3.1-1.8,5.1-5.1,5.1-9
			C33.4,96.5,33,94.8,32.3,93.3z"/>
		<path fill="#FFFFFF" d="M23,86.2c-6.7,0-12.1,5.5-12.1,12.1c0,6.7,5.5,12.1,12.1,12.1c6.7,0,12.1-5.5,12.1-12.1
			C35.3,91.7,29.8,86.2,23,86.2z M23,109.9c-6.4,0-11.6-5.2-11.6-11.6c0-6.4,5.2-11.6,11.6-11.6c6.4,0,11.6,5.2,11.6,11.6
			C34.6,104.8,29.5,109.9,23,109.9z"/>
	</g>
</g>
</svg>
